Coordinates
version=1
nRows=5
nColumns=42
inDegrees=yes

Units are S.I. units (second, meters, Newtons, ...)
If the header above contains a line with 'inDegrees', this indicates whether rotational values are in degrees (yes) or radians (no).

endheader
time	pelvis_tilt	pelvis_list	pelvis_rotation	pelvis_tx	pelvis_ty	pelvis_tz	hip_flexion_r	hip_adduction_r	hip_rotation_r	knee_angle_r	knee_adduction_r	knee_angle_r_beta	ankle_angle_r	subtalar_angle_r	mtp_angle_r	hip_flexion_l	hip_adduction_l	hip_rotation_l	knee_angle_l	knee_adduction_l	knee_angle_l_beta	ankle_angle_l	subtalar_angle_l	mtp_angle_l	lumbar_extension	lumbar_bending	lumbar_rotation	arm_flex_r	arm_add_r	arm_rot_r	elbow_flex_r	pro_sup_r	wrist_flex_r	wrist_dev_r	arm_flex_l	arm_add_l	arm_rot_l	elbow_flex_l	pro_sup_l	wrist_flex_l	wrist_dev_l
      0.00000000	      5.56584356	      2.00524170	     -4.98921408	     -2.81782496	      0.83608198	      0.11406244	    -18.31795394	      0.29791879	    -21.81356582	     33.46433820	    -12.89970947	      0.58406288	      7.84531285	     22.66819049	     -9.41135703	     26.36665207	      6.42393261	     -3.27524685	     31.17911945	     -4.77219791	      0.54417829	      5.99158841	     -7.17974768	     -9.41135703	    -21.65005882	     -3.88443373	     10.04481786	     13.26879314	    -21.55382068	      9.09165419	     54.39213553	     90.00000001	      0.00000000	      0.00000000	     -8.67657524	    -16.11236890	     33.02411567	     29.71219759	     90.00000001	      0.00000000	      0.00000000
      0.01000000	      5.87673117	      2.53827005	     -4.77491110	     -2.80398243	      0.83786522	      0.11313688	    -17.56768915	     -0.73547588	    -22.72116620	     36.28825206	    -13.57288386	      0.63334948	      4.18928183	     21.95918434	     -9.39162799	     25.47905509	      7.22877165	     -3.03780446	     32.06029819	     -4.51557927	      0.55955776	      6.90673828	     -7.52408556	     -9.39162799	    -21.98798103	     -4.46295369	      9.76170281	     12.73695178	    -21.41686254	      9.14503164	     53.60417253	     90.00000001	      0.00000000	      0.00000000	     -7.74446675	    -16.24666534	     33.02589758	     29.76844931	     90.00000001	      0.00000000	      0.00000000
      0.02000000	      5.70455886	      2.95609588	     -4.28584518	     -2.79083265	      0.83930729	      0.11195703	    -15.92787132	     -1.36920038	    -23.48486006	     39.55888473	    -14.43158646	      0.69043279	      0.11833396	     18.56709743	     -9.30437856	     25.00676768	      8.07042349	     -2.13433211	     32.67299105	     -4.25557572	      0.57025127	      7.28033722	     -8.59249273	     -9.30437856	    -21.85023452	     -4.80892385	      9.33938994	     12.22492605	    -21.17465557	      9.14213757	     52.42292239	     90.00000001	      0.00000000	      0.00000000	     -6.63184290	    -16.45316055	     33.35921539	     29.72168296	     90.00000001	      0.00000000	      0.00000000
      0.03000000	      5.77890825	      3.33163896	     -3.95270622	     -2.77775416	      0.84150948	      0.11082698	    -14.43548114	     -2.13046495	    -24.11662701	     42.83509519	    -15.16369330	      0.74761345	     -3.57322549	     15.65351377	     -9.20634617	     23.94601035	      8.79932803	     -1.77280861	     32.70717997	     -4.16542837	      0.57084798	      8.04135195	     -9.00657198	     -9.20634617	    -21.98330308	     -5.10420663	      9.04212846	     11.74166892	    -21.08913916	      9.37637450	     51.32593681	     90.00000001	      0.00000000	      0.00000000	     -5.48195403	    -16.54404546	     33.35544554	     29.82408964	     90.00000001	      0.00000000	      0.00000000
      0.04000000	      5.78666314	      3.69223838	     -3.58682737	     -2.76468080	      0.84376141	      0.10969816	    -12.69480163	     -2.94283097	    -25.10581132	     46.16845083	    -16.09541681	      0.80579148	     -6.53358058	     13.09864492	     -9.14723115	     22.82517943	      9.51535855	     -1.58254327	     32.49317718	     -4.23316620	      0.56711293	      8.86544322	     -8.75547876	     -9.14723115	    -22.00862468	     -5.35544895	      8.68765461	     11.25369733	    -20.97011923	      9.71901266	     50.12456716	     90.00000001	      0.00000000	      0.00000000	     -4.37281904	    -16.61936720	     33.10037351	     29.95696614	     90.00000001	      0.00000000	      0.00000000
